<svg width="84" height="84" viewBox="0 0 84 84" fill="none" xmlns="http://www.w3.org/2000/svg">
<path d="M73.5 24.5H10.5V14C10.5 13.0717 10.8687 12.1815 11.5251 11.5251C12.1815 10.8687 13.0717 10.5 14 10.5H70C70.9283 10.5 71.8185 10.8687 72.4749 11.5251C73.1313 12.1815 73.5 13.0717 73.5 14V24.5ZM10.5 70V31.5H73.5V70C73.5 70.9283 73.1313 71.8185 72.4749 72.4749C71.8185 73.1313 70.9283 73.5 70 73.5H14C13.0717 73.5 12.1815 73.1313 11.5251 72.4749C10.8687 71.8185 10.5 70.9283 10.5 70ZM21 49H63V42H21V49ZM21 63H42V56H21V63Z" fill="white"/>
</svg>
