<svg width="1038" height="287" viewBox="0 0 1038 287" fill="none" xmlns="http://www.w3.org/2000/svg">
<mask id="path-1-outside-1_113_493" maskUnits="userSpaceOnUse" x="137" y="63" width="604" height="168" fill="black">
<rect fill="white" x="137" y="63" width="604" height="168"/>
<path d="M200.653 65.125L237.153 175.625H238.903L236.903 108.875V65.125H279.653V225H220.403L182.153 111.25H180.403L182.403 179V225H139.528V65.125H200.653ZM367.806 228.25C344.222 228.25 326.889 223.125 315.806 212.875C304.806 202.625 299.306 187.625 299.306 167.875V158.25C299.306 138.667 304.472 123.75 314.806 113.5C325.222 103.25 340.389 98.125 360.306 98.125C373.556 98.125 384.597 100.333 393.431 104.75C402.264 109.083 408.889 115.375 413.306 123.625C417.806 131.792 420.056 141.667 420.056 153.25V157.125C420.056 160.458 419.889 163.875 419.556 167.375C419.306 170.792 418.889 173.958 418.306 176.875H378.681C379.014 171.792 379.222 167 379.306 162.5C379.472 158 379.556 153.958 379.556 150.375C379.556 146.042 378.889 142.417 377.556 139.5C376.222 136.5 374.139 134.25 371.306 132.75C368.472 131.167 364.806 130.375 360.306 130.375C353.556 130.375 348.639 132.125 345.556 135.625C342.556 139.125 341.056 144.083 341.056 150.5V161.625L341.306 166.375V174.125C341.306 176.708 341.764 179.208 342.681 181.625C343.597 184.042 345.264 186.208 347.681 188.125C350.181 189.958 353.681 191.417 358.181 192.5C362.764 193.583 368.681 194.125 375.931 194.125C383.347 194.125 390.597 193.542 397.681 192.375C404.764 191.125 411.597 189.417 418.181 187.25L414.681 219.375C408.931 222.208 402.056 224.375 394.056 225.875C386.139 227.458 377.389 228.25 367.806 228.25ZM322.681 176.875V150.875H409.431V176.875H322.681ZM450.72 225L427.97 101.875H472.595L484.97 193.875H487.345L499.095 104.75H551.345L563.47 193.875H565.595L578.22 101.875H622.345L599.595 225H537.47L527.72 149.5L526.22 137H524.47L522.845 149.5L512.97 225H450.72ZM681.944 228.125C672.194 228.125 663.319 227.333 655.319 225.75C647.319 224.167 640.403 222.292 634.569 220.125L630.944 183.75C637.444 186.25 644.653 188.542 652.569 190.625C660.569 192.625 669.069 193.625 678.069 193.625C684.653 193.625 689.153 193.083 691.569 192C694.069 190.917 695.319 189.167 695.319 186.75V186.5C695.319 184.667 694.611 183.208 693.194 182.125C691.778 181.042 689.278 180.042 685.694 179.125C682.194 178.125 677.319 176.917 671.069 175.5C660.819 173.083 652.694 170.208 646.694 166.875C640.694 163.458 636.403 159.333 633.819 154.5C631.236 149.667 629.944 143.917 629.944 137.25V136.25C629.944 123.583 634.486 114.167 643.569 108C652.736 101.75 666.069 98.625 683.569 98.625C692.986 98.625 701.569 99.4583 709.319 101.125C717.153 102.708 723.736 104.667 729.069 107L732.694 140.875C726.611 138.458 719.819 136.458 712.319 134.875C704.819 133.208 697.153 132.375 689.319 132.375C684.819 132.375 681.319 132.625 678.819 133.125C676.403 133.542 674.736 134.208 673.819 135.125C672.903 136.042 672.444 137.167 672.444 138.5V138.75C672.444 140.25 673.028 141.542 674.194 142.625C675.361 143.625 677.569 144.625 680.819 145.625C684.069 146.625 688.819 147.875 695.069 149.375C705.319 151.708 713.653 154.292 720.069 157.125C726.486 159.958 731.194 163.667 734.194 168.25C737.194 172.75 738.694 178.875 738.694 186.625V187.375C738.694 201.208 734.069 211.458 724.819 218.125C715.569 224.792 701.278 228.125 681.944 228.125Z"/>
</mask>
<path d="M200.653 65.125L202.552 64.4977L202.099 63.125H200.653V65.125ZM237.153 175.625L235.254 176.252L235.708 177.625H237.153V175.625ZM238.903 175.625V177.625H240.964L240.902 175.565L238.903 175.625ZM236.903 108.875H234.903V108.905L234.904 108.935L236.903 108.875ZM236.903 65.125V63.125H234.903V65.125H236.903ZM279.653 65.125H281.653V63.125H279.653V65.125ZM279.653 225V227H281.653V225H279.653ZM220.403 225L218.508 225.637L218.966 227H220.403V225ZM182.153 111.25L184.049 110.613L183.591 109.25H182.153V111.25ZM180.403 111.25V109.25H178.343L178.404 111.309L180.403 111.25ZM182.403 179H184.403V178.97L184.402 178.941L182.403 179ZM182.403 225V227H184.403V225H182.403ZM139.528 225H137.528V227H139.528V225ZM139.528 65.125V63.125H137.528V65.125H139.528ZM198.754 65.7523L235.254 176.252L239.052 174.998L202.552 64.4977L198.754 65.7523ZM237.153 177.625H238.903V173.625H237.153V177.625ZM240.902 175.565L238.902 108.815L234.904 108.935L236.904 175.685L240.902 175.565ZM238.903 108.875V65.125H234.903V108.875H238.903ZM236.903 67.125H279.653V63.125H236.903V67.125ZM277.653 65.125V225H281.653V65.125H277.653ZM279.653 223H220.403V227H279.653V223ZM222.299 224.363L184.049 110.613L180.258 111.887L218.508 225.637L222.299 224.363ZM182.153 109.25H180.403V113.25H182.153V109.25ZM178.404 111.309L180.404 179.059L184.402 178.941L182.402 111.191L178.404 111.309ZM180.403 179V225H184.403V179H180.403ZM182.403 223H139.528V227H182.403V223ZM141.528 225V65.125H137.528V225H141.528ZM139.528 67.125H200.653V63.125H139.528V67.125ZM315.806 212.875L314.442 214.338L314.448 214.343L315.806 212.875ZM314.806 113.5L313.403 112.074L313.397 112.08L314.806 113.5ZM393.431 104.75L392.536 106.539L392.543 106.542L392.55 106.546L393.431 104.75ZM413.306 123.625L411.542 124.569L411.548 124.58L411.554 124.59L413.306 123.625ZM419.556 167.375L417.565 167.185L417.563 167.207L417.561 167.229L419.556 167.375ZM418.306 176.875V178.875H419.945L420.267 177.267L418.306 176.875ZM378.681 176.875L376.685 176.744L376.545 178.875H378.681V176.875ZM379.306 162.5L377.307 162.426L377.306 162.444L377.306 162.463L379.306 162.5ZM377.556 139.5L375.728 140.312L375.732 140.322L375.737 140.332L377.556 139.5ZM371.306 132.75L370.33 134.496L370.35 134.507L370.37 134.518L371.306 132.75ZM345.556 135.625L344.055 134.303L344.046 134.313L344.037 134.323L345.556 135.625ZM341.056 161.625H339.056V161.678L339.058 161.73L341.056 161.625ZM341.306 166.375H343.306V166.322L343.303 166.27L341.306 166.375ZM342.681 181.625L344.551 180.916L344.551 180.916L342.681 181.625ZM347.681 188.125L346.438 189.692L346.467 189.715L346.498 189.738L347.681 188.125ZM358.181 192.5L357.713 194.444L357.721 194.446L358.181 192.5ZM397.681 192.375L398.006 194.348L398.017 194.347L398.028 194.345L397.681 192.375ZM418.181 187.25L420.169 187.467L420.505 184.379L417.555 185.35L418.181 187.25ZM414.681 219.375L415.565 221.169L416.55 220.684L416.669 219.592L414.681 219.375ZM394.056 225.875L393.687 223.909L393.675 223.911L393.663 223.914L394.056 225.875ZM322.681 176.875H320.681V178.875H322.681V176.875ZM322.681 150.875V148.875H320.681V150.875H322.681ZM409.431 150.875H411.431V148.875H409.431V150.875ZM409.431 176.875V178.875H411.431V176.875H409.431ZM367.806 226.25C344.454 226.25 327.717 221.167 317.164 211.407L314.448 214.343C326.061 225.083 343.991 230.25 367.806 230.25V226.25ZM317.169 211.412C306.692 201.649 301.306 187.253 301.306 167.875H297.306C297.306 187.997 302.919 203.601 314.442 214.338L317.169 211.412ZM301.306 167.875V158.25H297.306V167.875H301.306ZM301.306 158.25C301.306 139.01 306.376 124.679 316.214 114.92L313.397 112.08C302.569 122.821 297.306 138.323 297.306 158.25H301.306ZM316.208 114.926C326.132 105.161 340.719 100.125 360.306 100.125V96.125C340.059 96.125 324.313 101.339 313.403 112.074L316.208 114.926ZM360.306 100.125C373.346 100.125 384.059 102.3 392.536 106.539L394.325 102.961C385.136 98.3665 373.765 96.125 360.306 96.125V100.125ZM392.55 106.546C401.028 110.705 407.334 116.708 411.542 124.569L415.069 122.681C410.444 114.042 403.5 107.462 394.312 102.954L392.55 106.546ZM411.554 124.59C415.856 132.398 418.056 141.924 418.056 153.25H422.056C422.056 141.41 419.755 131.185 415.057 122.66L411.554 124.59ZM418.056 153.25V157.125H422.056V153.25H418.056ZM418.056 157.125C418.056 160.392 417.892 163.745 417.565 167.185L421.547 167.565C421.886 164.005 422.056 160.525 422.056 157.125H418.056ZM417.561 167.229C417.316 170.575 416.909 173.659 416.345 176.483L420.267 177.267C420.869 174.258 421.295 171.008 421.55 167.521L417.561 167.229ZM418.306 174.875H378.681V178.875H418.306V174.875ZM380.676 177.006C381.012 171.895 381.221 167.072 381.305 162.537L377.306 162.463C377.223 166.928 377.016 171.688 376.685 176.744L380.676 177.006ZM381.304 162.574C381.472 158.055 381.556 153.988 381.556 150.375H377.556C377.556 153.928 377.473 157.945 377.307 162.426L381.304 162.574ZM381.556 150.375C381.556 145.85 380.861 141.921 379.375 138.668L375.737 140.332C376.917 142.913 377.556 146.233 377.556 150.375H381.556ZM379.383 138.688C377.873 135.289 375.481 132.697 372.241 130.982L370.37 134.518C372.797 135.803 374.572 137.711 375.728 140.312L379.383 138.688ZM372.281 131.004C369.057 129.202 365.022 128.375 360.306 128.375V132.375C364.59 132.375 367.888 133.131 370.33 134.496L372.281 131.004ZM360.306 128.375C353.244 128.375 347.663 130.208 344.055 134.303L347.056 136.947C349.615 134.042 353.867 132.375 360.306 132.375V128.375ZM344.037 134.323C340.624 138.306 339.056 143.792 339.056 150.5H343.056C343.056 144.375 344.488 139.944 347.074 136.927L344.037 134.323ZM339.056 150.5V161.625H343.056V150.5H339.056ZM339.058 161.73L339.308 166.48L343.303 166.27L343.053 161.52L339.058 161.73ZM339.306 166.375V174.125H343.306V166.375H339.306ZM339.306 174.125C339.306 176.951 339.808 179.691 340.811 182.334L344.551 180.916C343.72 178.726 343.306 176.466 343.306 174.125H339.306ZM340.811 182.334C341.878 185.148 343.794 187.595 346.438 189.692L348.923 186.558C346.734 184.822 345.317 182.935 344.551 180.916L340.811 182.334ZM346.498 189.738C349.29 191.786 353.07 193.327 357.713 194.444L358.649 190.556C354.291 189.507 351.071 188.131 348.863 186.512L346.498 189.738ZM357.721 194.446C362.513 195.579 368.599 196.125 375.931 196.125V192.125C368.762 192.125 363.015 191.588 358.641 190.554L357.721 194.446ZM375.931 196.125C383.453 196.125 390.811 195.533 398.006 194.348L397.356 190.402C390.383 191.55 383.242 192.125 375.931 192.125V196.125ZM398.028 194.345C405.202 193.079 412.128 191.347 418.806 189.15L417.555 185.35C411.066 187.486 404.326 189.171 397.333 190.405L398.028 194.345ZM416.192 187.033L412.692 219.158L416.669 219.592L420.169 187.467L416.192 187.033ZM413.797 217.581C408.247 220.316 401.554 222.434 393.687 223.909L394.424 227.841C402.557 226.316 409.614 224.101 415.565 221.169L413.797 217.581ZM393.663 223.914C385.897 225.467 377.281 226.25 367.806 226.25V230.25C377.497 230.25 386.381 229.45 394.448 227.836L393.663 223.914ZM324.681 176.875V150.875H320.681V176.875H324.681ZM322.681 152.875H409.431V148.875H322.681V152.875ZM407.431 150.875V176.875H411.431V150.875H407.431ZM409.431 174.875H322.681V178.875H409.431V174.875ZM450.72 225L448.753 225.363L449.055 227H450.72V225ZM427.97 101.875V99.875H425.566L426.003 102.238L427.97 101.875ZM472.595 101.875L474.577 101.608L474.344 99.875H472.595V101.875ZM484.97 193.875L482.988 194.142L483.221 195.875H484.97V193.875ZM487.345 193.875V195.875H489.098L489.328 194.136L487.345 193.875ZM499.095 104.75V102.75H497.341L497.112 104.489L499.095 104.75ZM551.345 104.75L553.326 104.48L553.091 102.75H551.345V104.75ZM563.47 193.875L561.488 194.145L561.723 195.875H563.47V193.875ZM565.595 193.875V195.875H567.339L567.576 194.147L565.595 193.875ZM578.22 101.875V99.875H576.475L576.238 101.603L578.22 101.875ZM622.345 101.875L624.311 102.238L624.748 99.875H622.345V101.875ZM599.595 225V227H601.259L601.561 225.363L599.595 225ZM537.47 225L535.486 225.256L535.711 227H537.47V225ZM527.72 149.5L525.734 149.738L525.735 149.747L525.736 149.756L527.72 149.5ZM526.22 137L528.205 136.762L527.994 135H526.22V137ZM524.47 137V135H522.713L522.486 136.742L524.47 137ZM522.845 149.5L524.828 149.759L524.828 149.758L522.845 149.5ZM512.97 225V227H514.725L514.953 225.259L512.97 225ZM452.686 224.637L429.936 101.512L426.003 102.238L448.753 225.363L452.686 224.637ZM427.97 103.875H472.595V99.875H427.97V103.875ZM470.613 102.142L482.988 194.142L486.952 193.608L474.577 101.608L470.613 102.142ZM484.97 195.875H487.345V191.875H484.97V195.875ZM489.328 194.136L501.078 105.011L497.112 104.489L485.362 193.614L489.328 194.136ZM499.095 106.75H551.345V102.75H499.095V106.75ZM549.363 105.02L561.488 194.145L565.451 193.605L553.326 104.48L549.363 105.02ZM563.47 195.875H565.595V191.875H563.47V195.875ZM567.576 194.147L580.201 102.147L576.238 101.603L563.613 193.603L567.576 194.147ZM578.22 103.875H622.345V99.875H578.22V103.875ZM620.378 101.512L597.628 224.637L601.561 225.363L624.311 102.238L620.378 101.512ZM599.595 223H537.47V227H599.595V223ZM539.453 224.744L529.703 149.244L525.736 149.756L535.486 225.256L539.453 224.744ZM529.705 149.262L528.205 136.762L524.234 137.238L525.734 149.738L529.705 149.262ZM526.22 135H524.47V139H526.22V135ZM522.486 136.742L520.861 149.242L524.828 149.758L526.453 137.258L522.486 136.742ZM520.862 149.241L510.987 224.741L514.953 225.259L524.828 149.759L520.862 149.241ZM512.97 223H450.72V227H512.97V223ZM655.319 225.75L655.708 223.788L655.708 223.788L655.319 225.75ZM634.569 220.125L632.579 220.323L632.703 221.565L633.873 222L634.569 220.125ZM630.944 183.75L631.662 181.883L628.632 180.718L628.954 183.948L630.944 183.75ZM652.569 190.625L652.06 192.559L652.072 192.562L652.084 192.565L652.569 190.625ZM691.569 192L690.774 190.165L690.763 190.17L690.751 190.175L691.569 192ZM693.194 182.125L694.409 180.536L694.409 180.536L693.194 182.125ZM685.694 179.125L685.145 181.048L685.172 181.056L685.199 181.063L685.694 179.125ZM671.069 175.5L670.61 177.447L670.619 177.449L670.627 177.451L671.069 175.5ZM646.694 166.875L645.705 168.613L645.714 168.618L645.723 168.623L646.694 166.875ZM633.819 154.5L632.055 155.443L632.055 155.443L633.819 154.5ZM643.569 108L644.693 109.655L644.696 109.652L643.569 108ZM709.319 101.125L708.899 103.08L708.911 103.083L708.923 103.085L709.319 101.125ZM729.069 107L731.058 106.787L730.934 105.633L729.871 105.168L729.069 107ZM732.694 140.875L731.956 142.734L735.036 143.957L734.683 140.662L732.694 140.875ZM712.319 134.875L711.885 136.827L711.896 136.83L711.906 136.832L712.319 134.875ZM678.819 133.125L679.159 135.096L679.185 135.091L679.212 135.086L678.819 133.125ZM673.819 135.125L672.405 133.711L672.405 133.711L673.819 135.125ZM674.194 142.625L672.833 144.091L672.863 144.118L672.893 144.144L674.194 142.625ZM680.819 145.625L681.408 143.713L681.408 143.713L680.819 145.625ZM695.069 149.375L694.603 151.32L694.614 151.323L694.625 151.325L695.069 149.375ZM720.069 157.125L720.877 155.295L720.877 155.295L720.069 157.125ZM734.194 168.25L732.521 169.345L732.526 169.352L732.53 169.359L734.194 168.25ZM724.819 218.125L723.65 216.502L723.65 216.502L724.819 218.125ZM681.944 226.125C672.3 226.125 663.558 225.342 655.708 223.788L654.931 227.712C663.081 229.325 672.088 230.125 681.944 230.125V226.125ZM655.708 223.788C647.782 222.219 640.974 220.37 635.266 218.25L633.873 222C639.832 224.213 646.856 226.114 654.931 227.712L655.708 223.788ZM636.559 219.927L632.934 183.552L628.954 183.948L632.579 220.323L636.559 219.927ZM630.226 185.617C636.805 188.147 644.085 190.46 652.06 192.559L653.078 188.691C645.221 186.623 638.083 184.353 631.662 181.883L630.226 185.617ZM652.084 192.565C660.257 194.608 668.921 195.625 678.069 195.625V191.625C669.218 191.625 660.882 190.642 653.054 188.685L652.084 192.565ZM678.069 195.625C684.634 195.625 689.536 195.103 692.387 193.825L690.751 190.175C688.77 191.063 684.671 191.625 678.069 191.625V195.625ZM692.365 193.835C693.86 193.187 695.124 192.277 696.009 191.037C696.906 189.782 697.319 188.321 697.319 186.75H693.319C693.319 187.595 693.108 188.218 692.754 188.713C692.39 189.223 691.779 189.73 690.774 190.165L692.365 193.835ZM697.319 186.75V186.5H693.319V186.75H697.319ZM697.319 186.5C697.319 184.064 696.337 182.01 694.409 180.536L691.979 183.714C692.885 184.406 693.319 185.269 693.319 186.5H697.319ZM694.409 180.536C692.652 179.192 689.814 178.114 686.19 177.187L685.199 181.063C688.741 181.969 690.903 182.891 691.979 183.714L694.409 180.536ZM686.244 177.202C682.691 176.187 677.775 174.969 671.511 173.549L670.627 177.451C676.864 178.864 681.697 180.063 685.145 181.048L686.244 177.202ZM671.528 173.553C661.373 171.159 653.443 168.336 647.666 165.127L645.723 168.623C651.945 172.08 660.266 175.008 670.61 177.447L671.528 173.553ZM647.684 165.137C641.927 161.859 637.948 157.981 635.583 153.557L632.055 155.443C634.858 160.685 639.461 165.058 645.705 168.613L647.684 165.137ZM635.583 153.557C633.185 149.07 631.944 143.658 631.944 137.25H627.944C627.944 144.175 629.287 150.263 632.055 155.443L635.583 153.557ZM631.944 137.25V136.25H627.944V137.25H631.944ZM631.944 136.25C631.944 124.128 636.249 115.387 644.693 109.655L642.446 106.345C632.723 112.946 627.944 123.039 627.944 136.25H631.944ZM644.696 109.652C653.389 103.725 666.257 100.625 683.569 100.625V96.625C665.881 96.625 652.083 99.7749 642.443 106.348L644.696 109.652ZM683.569 100.625C692.87 100.625 701.31 101.448 708.899 103.08L709.74 99.1697C701.829 97.4684 693.102 96.625 683.569 96.625V100.625ZM708.923 103.085C716.665 104.65 723.103 106.573 728.268 108.832L729.871 105.168C724.369 102.761 717.641 100.767 709.716 99.1646L708.923 103.085ZM727.081 107.213L730.706 141.088L734.683 140.662L731.058 106.787L727.081 107.213ZM733.433 139.016C727.228 136.551 720.325 134.521 712.732 132.918L711.906 136.832C719.313 138.396 725.994 140.365 731.956 142.734L733.433 139.016ZM712.753 132.923C705.108 131.224 697.296 130.375 689.319 130.375V134.375C697.01 134.375 704.531 135.193 711.885 136.827L712.753 132.923ZM689.319 130.375C684.771 130.375 681.118 130.626 678.427 131.164L679.212 135.086C681.52 134.624 684.868 134.375 689.319 134.375V130.375ZM678.48 131.154C675.966 131.587 673.777 132.339 672.405 133.711L675.234 136.539C675.695 136.078 676.84 135.496 679.159 135.096L678.48 131.154ZM672.405 133.711C671.102 135.014 670.444 136.653 670.444 138.5H674.444C674.444 137.68 674.704 137.069 675.234 136.539L672.405 133.711ZM670.444 138.5V138.75H674.444V138.5H670.444ZM670.444 138.75C670.444 140.843 671.287 142.655 672.833 144.091L675.555 141.159C674.768 140.428 674.444 139.657 674.444 138.75H670.444ZM672.893 144.144C674.399 145.435 676.961 146.53 680.231 147.537L681.408 143.713C678.178 142.72 676.323 141.815 675.496 141.106L672.893 144.144ZM680.231 147.537C683.542 148.555 688.341 149.817 694.603 151.32L695.536 147.43C689.298 145.933 684.596 144.695 681.408 143.713L680.231 147.537ZM694.625 151.325C704.806 153.643 713.004 156.192 719.261 158.955L720.877 155.295C714.301 152.392 705.833 149.774 695.513 147.425L694.625 151.325ZM719.261 158.955C725.423 161.675 729.784 165.165 732.521 169.345L735.868 167.155C732.604 162.169 727.549 158.241 720.877 155.295L719.261 158.955ZM732.53 169.359C735.235 173.417 736.694 179.107 736.694 186.625H740.694C740.694 178.643 739.153 172.083 735.858 167.141L732.53 169.359ZM736.694 186.625V187.375H740.694V186.625H736.694ZM736.694 187.375C736.694 200.72 732.264 210.294 723.65 216.502L725.989 219.748C735.874 212.623 740.694 201.697 740.694 187.375H736.694ZM723.65 216.502C714.905 222.805 701.121 226.125 681.944 226.125V230.125C701.435 230.125 716.234 226.778 725.989 219.748L723.65 216.502Z" fill="white" mask="url(#path-1-outside-1_113_493)"/>
<g filter="url(#filter0_b_113_493)">
<g clip-path="url(#clip0_113_493)">
<mask id="path-4-outside-2_113_493" maskUnits="userSpaceOnUse" x="138" y="63" width="602" height="166" fill="black">
<rect fill="white" x="138" y="63" width="602" height="166"/>
<path d="M200.653 64.125L237.153 174.625H238.903L236.903 107.875V64.125H279.653V224H220.403L182.153 110.25H180.403L182.403 178V224H139.528V64.125H200.653ZM367.806 227.25C344.222 227.25 326.889 222.125 315.806 211.875C304.806 201.625 299.306 186.625 299.306 166.875V157.25C299.306 137.667 304.472 122.75 314.806 112.5C325.222 102.25 340.389 97.125 360.306 97.125C373.556 97.125 384.597 99.3333 393.431 103.75C402.264 108.083 408.889 114.375 413.306 122.625C417.806 130.792 420.056 140.667 420.056 152.25V156.125C420.056 159.458 419.889 162.875 419.556 166.375C419.306 169.792 418.889 172.958 418.306 175.875H378.681C379.014 170.792 379.222 166 379.306 161.5C379.472 157 379.556 152.958 379.556 149.375C379.556 145.042 378.889 141.417 377.556 138.5C376.222 135.5 374.139 133.25 371.306 131.75C368.472 130.167 364.806 129.375 360.306 129.375C353.556 129.375 348.639 131.125 345.556 134.625C342.556 138.125 341.056 143.083 341.056 149.5V160.625L341.306 165.375V173.125C341.306 175.708 341.764 178.208 342.681 180.625C343.597 183.042 345.264 185.208 347.681 187.125C350.181 188.958 353.681 190.417 358.181 191.5C362.764 192.583 368.681 193.125 375.931 193.125C383.347 193.125 390.597 192.542 397.681 191.375C404.764 190.125 411.597 188.417 418.181 186.25L414.681 218.375C408.931 221.208 402.056 223.375 394.056 224.875C386.139 226.458 377.389 227.25 367.806 227.25ZM322.681 175.875V149.875H409.431V175.875H322.681ZM450.72 224L427.97 100.875H472.595L484.97 192.875H487.345L499.095 103.75H551.345L563.47 192.875H565.595L578.22 100.875H622.345L599.595 224H537.47L527.72 148.5L526.22 136H524.47L522.845 148.5L512.97 224H450.72ZM681.944 227.125C672.194 227.125 663.319 226.333 655.319 224.75C647.319 223.167 640.403 221.292 634.569 219.125L630.944 182.75C637.444 185.25 644.653 187.542 652.569 189.625C660.569 191.625 669.069 192.625 678.069 192.625C684.653 192.625 689.153 192.083 691.569 191C694.069 189.917 695.319 188.167 695.319 185.75V185.5C695.319 183.667 694.611 182.208 693.194 181.125C691.778 180.042 689.278 179.042 685.694 178.125C682.194 177.125 677.319 175.917 671.069 174.5C660.819 172.083 652.694 169.208 646.694 165.875C640.694 162.458 636.403 158.333 633.819 153.5C631.236 148.667 629.944 142.917 629.944 136.25V135.25C629.944 122.583 634.486 113.167 643.569 107C652.736 100.75 666.069 97.625 683.569 97.625C692.986 97.625 701.569 98.4583 709.319 100.125C717.153 101.708 723.736 103.667 729.069 106L732.694 139.875C726.611 137.458 719.819 135.458 712.319 133.875C704.819 132.208 697.153 131.375 689.319 131.375C684.819 131.375 681.319 131.625 678.819 132.125C676.403 132.542 674.736 133.208 673.819 134.125C672.903 135.042 672.444 136.167 672.444 137.5V137.75C672.444 139.25 673.028 140.542 674.194 141.625C675.361 142.625 677.569 143.625 680.819 144.625C684.069 145.625 688.819 146.875 695.069 148.375C705.319 150.708 713.653 153.292 720.069 156.125C726.486 158.958 731.194 162.667 734.194 167.25C737.194 171.75 738.694 177.875 738.694 185.625V186.375C738.694 200.208 734.069 210.458 724.819 217.125C715.569 223.792 701.278 227.125 681.944 227.125Z"/>
</mask>
<path d="M200.653 64.125L237.153 174.625H238.903L236.903 107.875V64.125H279.653V224H220.403L182.153 110.25H180.403L182.403 178V224H139.528V64.125H200.653ZM367.806 227.25C344.222 227.25 326.889 222.125 315.806 211.875C304.806 201.625 299.306 186.625 299.306 166.875V157.25C299.306 137.667 304.472 122.75 314.806 112.5C325.222 102.25 340.389 97.125 360.306 97.125C373.556 97.125 384.597 99.3333 393.431 103.75C402.264 108.083 408.889 114.375 413.306 122.625C417.806 130.792 420.056 140.667 420.056 152.25V156.125C420.056 159.458 419.889 162.875 419.556 166.375C419.306 169.792 418.889 172.958 418.306 175.875H378.681C379.014 170.792 379.222 166 379.306 161.5C379.472 157 379.556 152.958 379.556 149.375C379.556 145.042 378.889 141.417 377.556 138.5C376.222 135.5 374.139 133.25 371.306 131.75C368.472 130.167 364.806 129.375 360.306 129.375C353.556 129.375 348.639 131.125 345.556 134.625C342.556 138.125 341.056 143.083 341.056 149.5V160.625L341.306 165.375V173.125C341.306 175.708 341.764 178.208 342.681 180.625C343.597 183.042 345.264 185.208 347.681 187.125C350.181 188.958 353.681 190.417 358.181 191.5C362.764 192.583 368.681 193.125 375.931 193.125C383.347 193.125 390.597 192.542 397.681 191.375C404.764 190.125 411.597 188.417 418.181 186.25L414.681 218.375C408.931 221.208 402.056 223.375 394.056 224.875C386.139 226.458 377.389 227.25 367.806 227.25ZM322.681 175.875V149.875H409.431V175.875H322.681ZM450.72 224L427.97 100.875H472.595L484.97 192.875H487.345L499.095 103.75H551.345L563.47 192.875H565.595L578.22 100.875H622.345L599.595 224H537.47L527.72 148.5L526.22 136H524.47L522.845 148.5L512.97 224H450.72ZM681.944 227.125C672.194 227.125 663.319 226.333 655.319 224.75C647.319 223.167 640.403 221.292 634.569 219.125L630.944 182.75C637.444 185.25 644.653 187.542 652.569 189.625C660.569 191.625 669.069 192.625 678.069 192.625C684.653 192.625 689.153 192.083 691.569 191C694.069 189.917 695.319 188.167 695.319 185.75V185.5C695.319 183.667 694.611 182.208 693.194 181.125C691.778 180.042 689.278 179.042 685.694 178.125C682.194 177.125 677.319 175.917 671.069 174.5C660.819 172.083 652.694 169.208 646.694 165.875C640.694 162.458 636.403 158.333 633.819 153.5C631.236 148.667 629.944 142.917 629.944 136.25V135.25C629.944 122.583 634.486 113.167 643.569 107C652.736 100.75 666.069 97.625 683.569 97.625C692.986 97.625 701.569 98.4583 709.319 100.125C717.153 101.708 723.736 103.667 729.069 106L732.694 139.875C726.611 137.458 719.819 135.458 712.319 133.875C704.819 132.208 697.153 131.375 689.319 131.375C684.819 131.375 681.319 131.625 678.819 132.125C676.403 132.542 674.736 133.208 673.819 134.125C672.903 135.042 672.444 136.167 672.444 137.5V137.75C672.444 139.25 673.028 140.542 674.194 141.625C675.361 142.625 677.569 143.625 680.819 144.625C684.069 145.625 688.819 146.875 695.069 148.375C705.319 150.708 713.653 153.292 720.069 156.125C726.486 158.958 731.194 162.667 734.194 167.25C737.194 171.75 738.694 177.875 738.694 185.625V186.375C738.694 200.208 734.069 210.458 724.819 217.125C715.569 223.792 701.278 227.125 681.944 227.125Z" fill="white"/>
<path d="M200.653 64.125L201.603 63.8113L201.376 63.125H200.653V64.125ZM237.153 174.625L236.204 174.939L236.431 175.625H237.153V174.625ZM238.903 174.625V175.625H239.934L239.903 174.595L238.903 174.625ZM236.903 107.875H235.903V107.89L235.904 107.905L236.903 107.875ZM236.903 64.125V63.125H235.903V64.125H236.903ZM279.653 64.125H280.653V63.125H279.653V64.125ZM279.653 224V225H280.653V224H279.653ZM220.403 224L219.455 224.319L219.685 225H220.403V224ZM182.153 110.25L183.101 109.931L182.872 109.25H182.153V110.25ZM180.403 110.25V109.25H179.373L179.404 110.28L180.403 110.25ZM182.403 178H183.403V177.985L183.403 177.97L182.403 178ZM182.403 224V225H183.403V224H182.403ZM139.528 224H138.528V225H139.528V224ZM139.528 64.125V63.125H138.528V64.125H139.528ZM199.704 64.4386L236.204 174.939L238.103 174.311L201.603 63.8113L199.704 64.4386ZM237.153 175.625H238.903V173.625H237.153V175.625ZM239.903 174.595L237.903 107.845L235.904 107.905L237.904 174.655L239.903 174.595ZM237.903 107.875V64.125H235.903V107.875H237.903ZM236.903 65.125H279.653V63.125H236.903V65.125ZM278.653 64.125V224H280.653V64.125H278.653ZM279.653 223H220.403V225H279.653V223ZM221.351 223.681L183.101 109.931L181.205 110.569L219.455 224.319L221.351 223.681ZM182.153 109.25H180.403V111.25H182.153V109.25ZM179.404 110.28L181.404 178.03L183.403 177.97L181.403 110.22L179.404 110.28ZM181.403 178V224H183.403V178H181.403ZM182.403 223H139.528V225H182.403V223ZM140.528 224V64.125H138.528V224H140.528ZM139.528 65.125H200.653V63.125H139.528V65.125ZM315.806 211.875L315.124 212.607L315.127 212.609L315.806 211.875ZM314.806 112.5L314.104 111.787L314.101 111.79L314.806 112.5ZM393.431 103.75L392.983 104.644L392.99 104.648L393.431 103.75ZM413.306 122.625L412.424 123.097L412.43 123.108L413.306 122.625ZM419.556 166.375L418.56 166.28L418.559 166.291L418.558 166.302L419.556 166.375ZM418.306 175.875V176.875H419.125L419.286 176.071L418.306 175.875ZM378.681 175.875L377.683 175.81L377.613 176.875H378.681V175.875ZM379.306 161.5L378.306 161.463L378.306 161.472L378.306 161.481L379.306 161.5ZM377.556 138.5L376.642 138.906L376.646 138.916L377.556 138.5ZM371.306 131.75L370.818 132.623L370.828 132.628L370.838 132.634L371.306 131.75ZM345.556 134.625L344.805 133.964L344.796 133.974L345.556 134.625ZM341.056 160.625H340.056V160.651L340.057 160.678L341.056 160.625ZM341.306 165.375H342.306V165.349L342.304 165.322L341.306 165.375ZM342.681 180.625L343.616 180.27L343.616 180.27L342.681 180.625ZM347.681 187.125L347.059 187.908L347.074 187.92L347.089 187.931L347.681 187.125ZM358.181 191.5L357.947 192.472L357.951 192.473L358.181 191.5ZM397.681 191.375L397.843 192.362L397.854 192.36L397.681 191.375ZM418.181 186.25L419.175 186.358L419.343 184.815L417.868 185.3L418.181 186.25ZM414.681 218.375L415.123 219.272L415.615 219.029L415.675 218.483L414.681 218.375ZM394.056 224.875L393.871 223.892L393.86 223.894L394.056 224.875ZM322.681 175.875H321.681V176.875H322.681V175.875ZM322.681 149.875V148.875H321.681V149.875H322.681ZM409.431 149.875H410.431V148.875H409.431V149.875ZM409.431 175.875V176.875H410.431V175.875H409.431ZM367.806 226.25C344.338 226.25 327.303 221.146 316.485 211.141L315.127 212.609C326.475 223.104 344.107 228.25 367.806 228.25V226.25ZM316.487 211.143C305.749 201.137 300.306 186.439 300.306 166.875H298.306C298.306 186.811 303.863 202.113 315.124 212.607L316.487 211.143ZM300.306 166.875V157.25H298.306V166.875H300.306ZM300.306 157.25C300.306 137.838 305.424 123.214 315.51 113.21L314.101 111.79C303.521 122.286 298.306 137.495 298.306 157.25H300.306ZM315.507 113.213C325.677 103.205 340.554 98.125 360.306 98.125V96.125C340.224 96.125 324.768 101.295 314.104 111.787L315.507 113.213ZM360.306 98.125C373.451 98.125 384.328 100.317 392.983 104.644L393.878 102.856C384.867 98.3499 373.66 96.125 360.306 96.125V98.125ZM392.99 104.648C401.646 108.894 408.112 115.041 412.424 123.097L414.187 122.153C409.667 113.709 402.882 107.273 393.871 102.852L392.99 104.648ZM412.43 123.108C416.831 131.095 419.056 140.795 419.056 152.25H421.056C421.056 140.538 418.78 130.489 414.182 122.142L412.43 123.108ZM419.056 152.25V156.125H421.056V152.25H419.056ZM419.056 156.125C419.056 159.425 418.891 162.81 418.56 166.28L420.551 166.47C420.887 162.94 421.056 159.492 421.056 156.125H419.056ZM418.558 166.302C418.311 169.683 417.899 172.808 417.325 175.679L419.286 176.071C419.879 173.108 420.3 169.9 420.553 166.448L418.558 166.302ZM418.306 174.875H378.681V176.875H418.306V174.875ZM379.679 175.94C380.013 170.843 380.222 166.036 380.305 161.519L378.306 161.481C378.223 165.964 378.015 170.74 377.683 175.81L379.679 175.94ZM380.305 161.537C380.472 157.028 380.556 152.973 380.556 149.375H378.556C378.556 152.943 378.473 156.972 378.306 161.463L380.305 161.537ZM380.556 149.375C380.556 144.946 379.875 141.169 378.465 138.084L376.646 138.916C377.903 141.665 378.556 145.137 378.556 149.375H380.556ZM378.469 138.094C377.048 134.895 374.81 132.474 371.774 130.866L370.838 132.634C373.468 134.026 375.397 136.105 376.642 138.906L378.469 138.094ZM371.793 130.877C368.764 129.184 364.914 128.375 360.306 128.375V130.375C364.698 130.375 368.18 131.149 370.818 132.623L371.793 130.877ZM360.306 128.375C353.4 128.375 348.151 130.166 344.805 133.964L346.306 135.286C349.127 132.084 353.712 130.375 360.306 130.375V128.375ZM344.796 133.974C341.59 137.715 340.056 142.938 340.056 149.5H342.056C342.056 143.229 343.522 138.535 346.315 135.276L344.796 133.974ZM340.056 149.5V160.625H342.056V149.5H340.056ZM340.057 160.678L340.307 165.428L342.304 165.322L342.054 160.572L340.057 160.678ZM340.306 165.375V173.125H342.306V165.375H340.306ZM340.306 173.125C340.306 175.83 340.786 178.45 341.746 180.98L343.616 180.27C342.742 177.967 342.306 175.587 342.306 173.125H340.306ZM341.746 180.98C342.738 183.595 344.529 185.902 347.059 187.908L348.302 186.342C345.999 184.515 344.457 182.488 343.616 180.27L341.746 180.98ZM347.089 187.931C349.735 189.872 353.375 191.372 357.947 192.472L358.415 190.528C353.986 189.462 350.626 188.045 348.272 186.319L347.089 187.931ZM357.951 192.473C362.638 193.581 368.64 194.125 375.931 194.125V192.125C368.721 192.125 362.89 191.585 358.411 190.527L357.951 192.473ZM375.931 194.125C383.4 194.125 390.704 193.538 397.843 192.362L397.518 190.388C390.49 191.546 383.295 192.125 375.931 192.125V194.125ZM397.854 192.36C404.983 191.102 411.863 189.382 418.493 187.2L417.868 185.3C411.332 187.451 404.545 189.148 397.507 190.39L397.854 192.36ZM417.187 186.142L413.687 218.267L415.675 218.483L419.175 186.358L417.187 186.142ZM414.239 217.478C408.589 220.262 401.805 222.405 393.871 223.892L394.24 225.858C402.307 224.345 409.273 222.155 415.123 219.272L414.239 217.478ZM393.86 223.894C386.018 225.463 377.335 226.25 367.806 226.25V228.25C377.443 228.25 386.26 227.454 394.252 225.856L393.86 223.894ZM323.681 175.875V149.875H321.681V175.875H323.681ZM322.681 150.875H409.431V148.875H322.681V150.875ZM408.431 149.875V175.875H410.431V149.875H408.431ZM409.431 174.875H322.681V176.875H409.431V174.875ZM450.72 224L449.736 224.182L449.888 225H450.72V224ZM427.97 100.875V99.875H426.768L426.986 101.057L427.97 100.875ZM472.595 100.875L473.586 100.742L473.469 99.875H472.595V100.875ZM484.97 192.875L483.979 193.008L484.095 193.875H484.97V192.875ZM487.345 192.875V193.875H488.222L488.336 193.006L487.345 192.875ZM499.095 103.75V102.75H498.218L498.103 103.619L499.095 103.75ZM551.345 103.75L552.336 103.615L552.218 102.75H551.345V103.75ZM563.47 192.875L562.479 193.01L562.597 193.875H563.47V192.875ZM565.595 192.875V193.875H566.467L566.585 193.011L565.595 192.875ZM578.22 100.875V99.875H577.348L577.229 100.739L578.22 100.875ZM622.345 100.875L623.328 101.057L623.546 99.875H622.345V100.875ZM599.595 224V225H600.427L600.578 224.182L599.595 224ZM537.47 224L536.478 224.128L536.591 225H537.47V224ZM527.72 148.5L526.727 148.619L526.728 148.628L527.72 148.5ZM526.22 136L527.213 135.881L527.107 135H526.22V136ZM524.47 136V135H523.591L523.478 135.871L524.47 136ZM522.845 148.5L523.836 148.63L523.836 148.629L522.845 148.5ZM512.97 224V225H513.847L513.961 224.13L512.97 224ZM451.703 223.818L428.953 100.693L426.986 101.057L449.736 224.182L451.703 223.818ZM427.97 101.875H472.595V99.875H427.97V101.875ZM471.604 101.008L483.979 193.008L485.961 192.742L473.586 100.742L471.604 101.008ZM484.97 193.875H487.345V191.875H484.97V193.875ZM488.336 193.006L500.086 103.881L498.103 103.619L486.353 192.744L488.336 193.006ZM499.095 104.75H551.345V102.75H499.095V104.75ZM550.354 103.885L562.479 193.01L564.461 192.74L552.336 103.615L550.354 103.885ZM563.47 193.875H565.595V191.875H563.47V193.875ZM566.585 193.011L579.21 101.011L577.229 100.739L564.604 192.739L566.585 193.011ZM578.22 101.875H622.345V99.875H578.22V101.875ZM621.361 100.693L598.611 223.818L600.578 224.182L623.328 101.057L621.361 100.693ZM599.595 223H537.47V225H599.595V223ZM538.461 223.872L528.711 148.372L526.728 148.628L536.478 224.128L538.461 223.872ZM528.713 148.381L527.213 135.881L525.227 136.119L526.727 148.619L528.713 148.381ZM526.22 135H524.47V137H526.22V135ZM523.478 135.871L521.853 148.371L523.836 148.629L525.461 136.129L523.478 135.871ZM521.853 148.37L511.978 223.87L513.961 224.13L523.836 148.63L521.853 148.37ZM512.97 223H450.72V225H512.97V223ZM655.319 224.75L655.513 223.769L655.513 223.769L655.319 224.75ZM634.569 219.125L633.574 219.224L633.636 219.845L634.221 220.062L634.569 219.125ZM630.944 182.75L631.303 181.817L629.788 181.234L629.949 182.849L630.944 182.75ZM652.569 189.625L652.315 190.592L652.327 190.595L652.569 189.625ZM691.569 191L691.172 190.082L691.16 190.087L691.569 191ZM693.194 181.125L693.802 180.331L693.802 180.331L693.194 181.125ZM685.694 178.125L685.42 179.087L685.433 179.09L685.447 179.094L685.694 178.125ZM671.069 174.5L670.84 175.473L670.848 175.475L671.069 174.5ZM646.694 165.875L646.199 166.744L646.209 166.749L646.694 165.875ZM633.819 153.5L632.937 153.971L632.937 153.971L633.819 153.5ZM643.569 107L644.131 107.827L644.133 107.826L643.569 107ZM709.319 100.125L709.109 101.103L709.121 101.105L709.319 100.125ZM729.069 106L730.064 105.894L730.002 105.316L729.47 105.084L729.069 106ZM732.694 139.875L732.325 140.804L733.865 141.416L733.689 139.769L732.694 139.875ZM712.319 133.875L712.102 134.851L712.113 134.853L712.319 133.875ZM678.819 132.125L678.989 133.11L679.002 133.108L679.015 133.106L678.819 132.125ZM673.819 134.125L673.112 133.418L673.112 133.418L673.819 134.125ZM674.194 141.625L673.514 142.358L673.528 142.371L673.544 142.384L674.194 141.625ZM680.819 144.625L681.113 143.669L681.113 143.669L680.819 144.625ZM695.069 148.375L694.836 149.347L694.847 149.35L695.069 148.375ZM720.069 156.125L720.473 155.21L720.473 155.21L720.069 156.125ZM734.194 167.25L733.358 167.798L733.362 167.805L734.194 167.25ZM724.819 217.125L724.235 216.314L724.235 216.314L724.819 217.125ZM681.944 226.125C672.247 226.125 663.439 225.338 655.513 223.769L655.125 225.731C663.2 227.329 672.141 228.125 681.944 228.125V226.125ZM655.513 223.769C647.551 222.193 640.688 220.331 634.918 218.188L634.221 220.062C640.117 222.252 647.088 224.14 655.125 225.731L655.513 223.769ZM635.564 219.026L631.939 182.651L629.949 182.849L633.574 219.224L635.564 219.026ZM630.585 183.683C637.125 186.199 644.369 188.501 652.315 190.592L652.824 188.658C644.937 186.582 637.764 184.301 631.303 181.817L630.585 183.683ZM652.327 190.595C660.413 192.617 668.995 193.625 678.069 193.625V191.625C669.144 191.625 660.726 190.633 652.812 188.655L652.327 190.595ZM678.069 193.625C684.644 193.625 689.344 193.093 691.978 191.913L691.16 190.087C688.961 191.073 684.662 191.625 678.069 191.625V193.625ZM691.967 191.918C693.34 191.323 694.44 190.514 695.196 189.456C695.956 188.391 696.319 187.14 696.319 185.75H694.319C694.319 186.777 694.057 187.609 693.568 188.294C693.073 188.986 692.299 189.594 691.172 190.082L691.967 191.918ZM696.319 185.75V185.5H694.319V185.75H696.319ZM696.319 185.5C696.319 183.365 695.474 181.609 693.802 180.331L692.587 181.919C693.748 182.807 694.319 183.968 694.319 185.5H696.319ZM693.802 180.331C692.215 179.117 689.546 178.078 685.942 177.156L685.447 179.094C689.01 180.005 691.341 180.966 692.587 181.919L693.802 180.331ZM685.969 177.163C682.443 176.156 677.547 174.943 671.29 173.525L670.848 175.475C677.092 176.89 681.946 178.094 685.42 179.087L685.969 177.163ZM671.299 173.527C661.096 171.121 653.069 168.272 647.18 165.001L646.209 166.749C652.32 170.144 660.543 173.046 670.84 175.473L671.299 173.527ZM647.189 165.006C641.311 161.659 637.175 157.657 634.701 153.029L632.937 153.971C635.63 159.009 640.078 163.258 646.199 166.744L647.189 165.006ZM634.701 153.029C632.211 148.369 630.944 142.787 630.944 136.25H628.944C628.944 143.046 630.261 148.965 632.937 153.971L634.701 153.029ZM630.944 136.25V135.25H628.944V136.25H630.944ZM630.944 135.25C630.944 122.856 635.367 113.777 644.131 107.827L643.008 106.173C633.605 112.556 628.944 122.311 628.944 135.25H630.944ZM644.133 107.826C653.063 101.738 666.163 98.625 683.569 98.625V96.625C665.975 96.625 652.409 99.7624 643.006 106.174L644.133 107.826ZM683.569 98.625C692.928 98.625 701.44 99.4533 709.109 101.103L709.53 99.1473C701.699 97.4634 693.044 96.625 683.569 96.625V98.625ZM709.121 101.105C716.909 102.679 723.419 104.62 728.669 106.916L729.47 105.084C724.053 102.714 717.397 100.737 709.517 99.1448L709.121 101.105ZM728.075 106.106L731.7 139.981L733.689 139.769L730.064 105.894L728.075 106.106ZM733.064 138.946C726.919 136.505 720.072 134.49 712.526 132.897L712.113 134.853C719.566 136.427 726.303 138.412 732.325 140.804L733.064 138.946ZM712.536 132.899C704.964 131.216 697.224 130.375 689.319 130.375V132.375C697.081 132.375 704.675 133.201 712.102 134.851L712.536 132.899ZM689.319 130.375C684.795 130.375 681.219 130.625 678.623 131.144L679.015 133.106C681.42 132.625 684.843 132.375 689.319 132.375V130.375ZM678.649 131.14C676.184 131.565 674.256 132.274 673.112 133.418L674.526 134.832C675.216 134.143 676.621 133.519 678.989 133.11L678.649 131.14ZM673.112 133.418C672.002 134.528 671.444 135.91 671.444 137.5H673.444C673.444 136.423 673.803 135.555 674.526 134.832L673.112 133.418ZM671.444 137.5V137.75H673.444V137.5H671.444ZM671.444 137.75C671.444 139.547 672.157 141.098 673.514 142.358L674.875 140.892C673.898 139.985 673.444 138.953 673.444 137.75H671.444ZM673.544 142.384C674.88 143.53 677.265 144.578 680.525 145.581L681.113 143.669C677.873 142.672 675.842 141.72 674.845 140.866L673.544 142.384ZM680.525 145.581C683.806 146.59 688.58 147.846 694.836 149.347L695.303 147.403C689.059 145.904 684.333 144.66 681.113 143.669L680.525 145.581ZM694.847 149.35C705.063 151.675 713.329 154.242 719.665 157.04L720.473 155.21C713.977 152.342 705.576 149.741 695.291 147.4L694.847 149.35ZM719.665 157.04C725.955 159.817 730.489 163.416 733.358 167.798L735.031 166.702C731.899 161.918 727.018 158.1 720.473 155.21L719.665 157.04ZM733.362 167.805C736.215 172.084 737.694 177.991 737.694 185.625H739.694C739.694 177.759 738.174 171.416 735.026 166.695L733.362 167.805ZM737.694 185.625V186.375H739.694V185.625H737.694ZM737.694 186.375C737.694 199.964 733.167 209.876 724.235 216.314L725.404 217.936C734.972 211.041 739.694 200.452 739.694 186.375H737.694ZM724.235 216.314C715.237 222.798 701.199 226.125 681.944 226.125V228.125C701.356 228.125 715.902 224.785 725.404 217.936L724.235 216.314Z" fill="white" mask="url(#path-4-outside-2_113_493)"/>
</g>
</g>
<defs>
<filter id="filter0_b_113_493" x="128" y="115" width="680" height="189.583" filterUnits="userSpaceOnUse" color-interpolation-filters="sRGB">
<feFlood flood-opacity="0" result="BackgroundImageFix"/>
<feGaussianBlur in="BackgroundImageFix" stdDeviation="17.5"/>
<feComposite in2="SourceAlpha" operator="in" result="effect1_backgroundBlur_113_493"/>
<feBlend mode="normal" in="SourceGraphic" in2="effect1_backgroundBlur_113_493" result="shape"/>
</filter>
<clipPath id="clip0_113_493">
<rect x="163" y="150" width="610" height="119.583" rx="50" fill="white"/>
</clipPath>
</defs>
</svg>
