<svg width="90" height="99" viewBox="0 0 90 99" fill="none" xmlns="http://www.w3.org/2000/svg">
<path fill-rule="evenodd" clip-rule="evenodd" d="M30 8.24072C31.9231 8.24072 33.5081 9.83145 33.7248 11.8808L33.75 12.3613V20.6025C39.7415 20.6025 44.6387 25.7488 44.9809 32.2379L45 32.9643V57.6879C45 64.2714 40.3167 69.6527 34.411 70.0286L33.75 70.0496V86.532C33.75 88.8078 32.0711 90.6526 30 90.6526C28.0769 90.6526 26.4918 89.0619 26.2752 87.0126L26.25 86.532V70.0496C20.2587 70.0496 15.3613 64.9035 15.0191 58.4142L15 57.6879V32.9643C15 26.3809 19.6835 20.9995 25.589 20.6235L26.25 20.6025V12.3613C26.25 10.0856 27.929 8.24072 30 8.24072ZM63.75 8.24072C65.6732 8.24072 67.2582 9.83145 67.4748 11.8808L67.5 12.3613V28.8437C73.4915 28.8437 78.3887 33.99 78.7309 40.4791L78.75 41.2055V65.929C78.75 72.5126 74.0667 77.8939 68.161 78.2698L67.5 78.2908V86.532C67.5 88.8078 65.8211 90.6526 63.75 90.6526C61.8268 90.6526 60.2418 89.0619 60.0252 87.0126L60 86.532V78.2908C54.0085 78.2908 49.1113 73.1447 48.7691 66.6554L48.75 65.929V41.2055C48.75 34.6221 53.4333 29.2407 59.339 28.8647L60 28.8437V12.3613C60 10.0856 61.6789 8.24072 63.75 8.24072ZM67.5 37.0849H60C58.0768 37.0849 56.4918 38.6756 56.2752 40.7249L56.25 41.2055V65.929C56.25 68.0423 57.6976 69.7839 59.5627 70.0219L60 70.0496H67.5C69.4232 70.0496 71.0082 68.459 71.2248 66.4096L71.25 65.929V41.2055C71.25 39.0923 69.8024 37.3506 67.9373 37.1126L67.5 37.0849ZM33.75 28.8437H26.25C24.3269 28.8437 22.7418 30.4344 22.5252 32.4837L22.5 32.9643V57.6879C22.5 59.8011 23.9477 61.5427 25.8127 61.7807L26.25 61.8084H33.75C35.6731 61.8084 37.2581 60.2178 37.4748 58.1684L37.5 57.6879V32.9643C37.5 30.8511 36.0523 29.1094 34.1873 28.8714L33.75 28.8437Z" fill="white"/>
</svg>
